<?xml version="1.0" encoding="UTF-8" standalone="no"?>
<!-- Created with Inkscape (http://www.inkscape.org/) -->

<svg
   xmlns:dc="http://purl.org/dc/elements/1.1/"
   xmlns:cc="http://creativecommons.org/ns#"
   xmlns:rdf="http://www.w3.org/1999/02/22-rdf-syntax-ns#"
   xmlns:svg="http://www.w3.org/2000/svg"
   xmlns="http://www.w3.org/2000/svg"
   xmlns:sodipodi="http://sodipodi.sourceforge.net/DTD/sodipodi-0.dtd"
   xmlns:inkscape="http://www.inkscape.org/namespaces/inkscape"
   width="300.07132"
   height="300.05707"
   id="svg2"
   version="1.1"
   inkscape:version="0.48.5 r10040"
   sodipodi:docname="logo.svg">
  <defs
     id="defs4" />
  <sodipodi:namedview
     id="base"
     pagecolor="#ffffff"
     bordercolor="#666666"
     borderopacity="1.0"
     inkscape:pageopacity="0.0"
     inkscape:pageshadow="2"
     inkscape:zoom="0.98994949"
     inkscape:cx="265.11175"
     inkscape:cy="259.04104"
     inkscape:document-units="px"
     inkscape:current-layer="layer1"
     showgrid="false"
     inkscape:snap-midpoints="true"
     inkscape:snap-object-midpoints="true"
     inkscape:object-nodes="true"
     inkscape:snap-smooth-nodes="true"
     inkscape:snap-center="true"
     inkscape:window-width="1920"
     inkscape:window-height="1036"
     inkscape:window-x="0"
     inkscape:window-y="44"
     inkscape:window-maximized="0"
     inkscape:object-paths="true"
     inkscape:snap-intersection-paths="true"
     fit-margin-top="0"
     fit-margin-left="0"
     fit-margin-right="0"
     fit-margin-bottom="0" />
  <metadata
     id="metadata7">
    <rdf:RDF>
      <cc:Work
         rdf:about="">
        <dc:format>image/svg+xml</dc:format>
        <dc:type
           rdf:resource="http://purl.org/dc/dcmitype/StillImage" />
      </cc:Work>
    </rdf:RDF>
  </metadata>
  <g
     inkscape:label="Layer 1"
     inkscape:groupmode="layer"
     id="layer1"
     transform="translate(-52.815217,-444.94022)">
    <g
       id="g3834"
       transform="matrix(0.45653414,0,0,0.45653414,28.718774,404.86508)">
      <path
         inkscape:connector-curvature="0"
         id="rect2985"
         d="m 271.90625,87.84375 c -13.05857,0 -23.5625,10.503929 -23.5625,23.5625 l 0,171.90625 -171.90625,0 c -13.058571,0 -23.59375,10.50393 -23.59375,23.5625 0,13.05857 10.535179,23.59375 23.59375,23.59375 l 171.90625,0 0,171.90625 -171.90625,0 c -13.058571,0 -23.59375,10.50393 -23.59375,23.5625 0,13.05857 10.535179,23.5625 23.59375,23.5625 l 171.90625,0 0,171.90625 c 0,13.05857 10.50393,23.5625 23.5625,23.5625 13.05857,0 23.5625,-10.50393 23.5625,-23.5625 l 0,-171.90625 171.90625,0 0,171.90625 c 0,13.05857 10.50393,23.5625 23.5625,23.5625 13.05857,0 23.59375,-10.50393 23.59375,-23.5625 l 0,-171.90625 171.90625,0 C 699.49607,549.5 710,538.99607 710,525.9375 710,512.87893 699.49607,502.375 686.4375,502.375 l -171.90625,0 0,-171.90625 171.90625,0 c 13.05857,0 23.5625,-10.53518 23.5625,-23.59375 0,-13.05857 -10.50393,-23.5625 -23.5625,-23.5625 l -171.90625,0 0,-171.90625 c 0,-13.058571 -10.53518,-23.5625 -23.59375,-23.5625 -13.05857,0 -23.5625,10.503929 -23.5625,23.5625 l 0,171.90625 -171.90625,0 0,-171.90625 c 0,-13.058571 -10.50393,-23.5625 -23.5625,-23.5625 z m 23.5625,242.625 171.90625,0 0,171.90625 -171.90625,0 0,-171.90625 z"
         style="fill:#000000;fill-opacity:0.73891625;stroke:#000000;stroke-width:0;stroke-linecap:round;stroke-linejoin:round;stroke-miterlimit:4;stroke-opacity:1;stroke-dasharray:none;stroke-dashoffset:0" />
      <path
         inkscape:connector-curvature="0"
         id="rect3781"
         d="m 114.47349,344.9248 c -13.05857,0 -23.593752,10.50393 -23.593752,23.5625 0,13.05857 10.535182,23.59375 23.593752,23.59375 l 24.34375,0 0,72.25 c 0,13.05857 10.50393,23.5625 23.5625,23.5625 13.05857,0 23.5625,-10.50393 23.5625,-23.5625 l 0,-72.25 24.34375,0 c 13.05857,0 23.59375,-10.53518 23.59375,-23.59375 0,-13.05857 -10.53518,-23.5625 -23.59375,-23.5625 l -47.90625,0 -47.90625,0 z"
         style="fill:#000000;fill-opacity:0.73891625;stroke:#000000;stroke-width:0;stroke-linecap:round;stroke-linejoin:round;stroke-miterlimit:4;stroke-opacity:1;stroke-dasharray:none;stroke-dashoffset:0" />
      <path
         sodipodi:nodetypes="sscsssssccsssccssss"
         inkscape:connector-curvature="0"
         id="rect3788"
         d="m 334.0625,344.90625 c -13.05857,0 -23.59375,10.53518 -23.59375,23.59375 l 0,47.90625 0,47.90625 c 0,13.05857 10.53518,23.59375 23.59375,23.59375 l 95.8125,0 c 13.05857,0 23.5625,-10.53518 23.5625,-23.59375 0,-13.05857 -10.50393,-23.5625 -23.5625,-23.5625 l -72.25,0 0,0 12.21875,0 c 13.05857,0 23.5625,-11.28518 23.5625,-24.34375 0,-13.05857 -10.50393,-24.34375 -23.5625,-24.34375 l -12.21875,0 0,0 72.25,0 c 13.05857,0 23.5625,-10.50393 23.5625,-23.5625 0,-13.05857 -10.50393,-23.59375 -23.5625,-23.59375 z"
         style="fill:#000000;fill-opacity:0.73891625;stroke:#000000;stroke-width:0;stroke-linecap:round;stroke-linejoin:round;stroke-miterlimit:4;stroke-opacity:1;stroke-dasharray:none;stroke-dashoffset:0" />
      <path
         inkscape:connector-curvature="0"
         id="rect3794"
         d="m 552.55544,344.90918 c -13.05857,0 -23.5625,10.53518 -23.5625,23.59375 l 0,95.8125 c 0,13.05857 10.50393,23.59375 23.5625,23.59375 l 95.84375,0 c 13.05857,0 23.5625,-10.53518 23.5625,-23.59375 0,-13.05857 -10.50393,-23.5625 -23.5625,-23.5625 l -72.28125,0 0,-48.6875 72.28125,0 c 13.05857,0 23.5625,-10.50393 23.5625,-23.5625 0,-13.05857 -10.50393,-23.59375 -23.5625,-23.59375 l -95.84375,0 z"
         style="fill:#000000;fill-opacity:0.73891625;stroke:#000000;stroke-width:0;stroke-linecap:round;stroke-linejoin:round;stroke-miterlimit:4;stroke-opacity:1;stroke-dasharray:none;stroke-dashoffset:0" />
    </g>
  </g>
</svg>
